<svg width="24" height="24" viewBox="0 0 24 24" fill="none" xmlns="http://www.w3.org/2000/svg">
<path d="M17.6769 13.5618C18.956 13.2926 19.7748 12.0374 19.5056 10.7582C19.2363 9.47903 17.9811 8.66031 16.7019 8.92953C15.4228 9.19875 14.604 10.454 14.8733 11.7331C15.1425 13.0123 16.3977 13.831 17.6769 13.5618Z" fill="#57585B"/>
<path d="M4.10368 10.7138C4.07804 10.592 4.08319 10.4689 4.11801 10.3716C4.15282 10.2742 4.21445 10.2107 4.28933 10.195L7.7742 9.46153L9.30583 16.7389L5.82096 17.4723C5.74608 17.4881 5.66408 17.4548 5.593 17.3798C5.52191 17.3048 5.46757 17.1942 5.44193 17.0723L4.10368 10.7138Z" fill="#D9D9D9"/>
<path d="M13.3876 5.52802C11.6834 7.16612 9.90985 8.80921 7.7736 9.4584L9.30587 16.7388L9.40143 16.7187C11.5875 16.4857 13.8378 17.2628 16.0259 18.0637L16.6995 17.8235L16.1672 15.2941C16.288 15.2675 16.3935 15.1943 16.4606 15.0903C16.5278 14.9863 16.5511 14.86 16.5256 14.7389L15.1878 8.38224C15.1623 8.26113 15.09 8.15498 14.9867 8.08688C14.8833 8.01878 14.7573 7.99424 14.6359 8.0186L14.1008 5.4758L13.3876 5.52802Z" fill="#A0A4AF"/>
<path d="M16.9008 5.02952C16.6827 3.99326 15.666 3.32998 14.6299 3.54804C13.5938 3.7661 12.9307 4.78292 13.1488 5.81918L15.6788 17.8403C15.8969 18.8766 16.9136 19.5399 17.9497 19.3218C18.9858 19.1038 19.6489 18.0869 19.4308 17.0507L16.9008 5.02952Z" fill="#3A65FF"/>
</svg>
