<svg width="64" height="44" viewBox="0 0 64 44" fill="none" xmlns="http://www.w3.org/2000/svg" style="transform:rotate(180deg);">
<path opacity="0.1" d="M21.8204 40.4311C19.918 40.4311 18.1223 39.8869 16.5762 38.8483H13.797C7.56162 38.8483 2.48877 33.7754 2.48877 27.54L2.48877 16.46C2.48877 10.2246 7.56162 5.15177 13.797 5.15177H16.5762C18.1223 4.11313 19.918 3.56891 21.8204 3.56891C23.5615 3.56891 25.2375 4.12498 26.6336 5.15177L51.7856 5.15177C57.1484 5.15177 61.511 9.51441 61.511 14.8772V29.1229C61.511 34.4856 57.1484 38.8483 51.7856 38.8483L26.6336 38.8483C25.2375 39.8751 23.5615 40.4311 21.8204 40.4311Z" fill="#3A65FF"/>
<path opacity="0.2" d="M21.8203 38.0598C20.1698 38.0598 18.6119 37.5025 17.3557 36.4769H13.7969C8.8693 36.4769 4.85999 32.4676 4.85999 27.54L4.85999 16.46C4.85999 11.5324 8.8693 7.52304 13.7969 7.52304L17.3557 7.52304C18.6113 6.49745 20.1698 5.94019 21.8203 5.94019C23.2905 5.94019 24.7151 6.51938 25.7816 7.52304L51.7855 7.52304C55.8405 7.52304 59.1396 10.8221 59.1396 14.8771V29.1228C59.1396 33.1778 55.8405 36.4769 51.7855 36.4769H25.7816C24.7151 37.4806 23.2905 38.0598 21.8203 38.0598Z" fill="#3A65FF"/>
<g filter="url(#filter0_d_393_1703)">
<path d="M51.7855 11.0801L23.9426 11.0801C23.6699 10.1659 22.8216 9.49719 21.8203 9.49719C20.6109 9.49719 19.5189 10.1126 18.881 11.0801L13.7969 11.0801C10.8304 11.0801 8.41696 13.4935 8.41696 16.46L8.41696 27.54C8.41696 30.5065 10.8304 32.9199 13.7969 32.9199H18.881C19.5189 33.8874 20.6109 34.5028 21.8203 34.5028C22.8222 34.5028 23.6705 33.8341 23.9426 32.9199H51.7855C53.8794 32.9199 55.5826 31.2167 55.5826 29.1229V14.8771C55.5826 12.7833 53.8794 11.0801 51.7855 11.0801ZM53.0156 12.8473C52.9504 12.8076 52.8828 12.7708 52.8141 12.7376C52.8834 12.7708 52.9504 12.8076 53.0156 12.8473ZM21.8203 10.92C21.5962 10.92 21.3798 10.9556 21.1771 11.0214C21.3798 10.9561 21.5956 10.92 21.8203 10.92ZM20.7763 11.1992C20.6874 11.2502 20.6026 11.3077 20.5232 11.3705C20.4811 11.4037 20.4402 11.4393 20.4004 11.4755C20.4402 11.4387 20.4811 11.4037 20.5232 11.3705C20.6032 11.3071 20.688 11.2502 20.7763 11.1992ZM20.3323 11.5413C20.072 11.8033 19.8805 12.1341 19.7869 12.5028C19.8811 12.1341 20.0726 11.8033 20.3323 11.5413ZM12.083 12.8935C11.9099 12.9771 11.7439 13.0726 11.5862 13.1793C11.7439 13.0726 11.9099 12.9765 12.083 12.8935ZM11.5862 30.8201C11.7439 30.9268 11.9099 31.0229 12.083 31.1059C11.9099 31.0223 11.7439 30.9268 11.5862 30.8201ZM22.3289 32.8945C22.3224 32.8998 22.3153 32.9051 22.3082 32.9105C22.3153 32.9051 22.3218 32.8998 22.3289 32.8945ZM54.1598 29.1229C54.1598 29.9819 53.7009 30.736 53.0156 31.1527C52.9504 31.1924 52.8828 31.2292 52.8141 31.2624C52.7103 31.3122 52.6024 31.3555 52.491 31.3898C52.6024 31.3549 52.7103 31.3122 52.8141 31.2624C52.8834 31.2292 52.9504 31.1924 53.0156 31.1527C53.7009 30.736 54.1598 29.9819 54.1598 29.1229V14.8771C54.1598 14.059 53.7436 13.3358 53.1123 12.9089C53.7442 13.3358 54.1598 14.059 54.1598 14.8771V29.1229Z" fill="white"/>
</g>
<path d="M51.7858 12.5029L22.612 12.5029V11.7115C22.612 11.2746 22.2575 10.92 21.8206 10.92C20.8412 10.92 20.0184 11.5947 19.7872 12.5029L13.7972 12.5029C11.615 12.5029 9.84006 14.2778 9.84006 16.46L9.84006 27.5401C9.84006 29.7223 11.615 31.4972 13.7972 31.4972H19.7872C20.019 32.4054 20.8412 33.0801 21.8206 33.0801C22.2575 33.0801 22.612 32.7256 22.612 32.2886V31.4972L51.7858 31.4972C53.0948 31.4972 54.1601 30.4319 54.1601 29.1229V14.8772C54.1601 13.5682 53.0948 12.5029 51.7858 12.5029ZM11.5569 26.5174C11.9642 26.3591 12.423 26.5613 12.5807 26.9692C12.7568 27.4227 13.0781 27.8217 13.4854 28.0926C13.8494 28.3345 13.9478 28.8259 13.7059 29.1899C13.464 29.5539 12.972 29.6523 12.6086 29.4104C11.9221 28.9534 11.4022 28.3072 11.1052 27.5412C10.9469 27.134 11.149 26.6751 11.5569 26.5174ZM51.4989 28.3315C51.062 28.3315 50.7075 27.977 50.7075 27.5401V16.46C50.7075 16.0231 51.062 15.6686 51.4989 15.6686C51.9358 15.6686 52.2903 16.0231 52.2903 16.46V27.5401C52.2903 27.9776 51.9358 28.3315 51.4989 28.3315ZM23.2944 16.3575V27.5857C23.2944 27.9272 23.075 28.2307 22.7507 28.3374L18.8511 29.6221C18.3401 29.7893 17.8124 29.411 17.8119 28.8704L17.8059 15.1262C17.8059 14.5938 18.3229 14.2103 18.8357 14.3709L22.7412 15.6022C23.0709 15.706 23.2944 16.0119 23.2944 16.3569V16.3575ZM12.6092 14.3259C12.9732 14.0834 13.464 14.1824 13.7065 14.5464C13.9484 14.9104 13.85 15.4018 13.486 15.6437C13.0787 15.9146 12.7574 16.3136 12.5813 16.7671C12.423 17.175 11.9642 17.3772 11.5575 17.2189C11.1496 17.0612 10.9475 16.6023 11.1058 16.1951C11.4028 15.4291 11.9227 14.7823 12.6098 14.3259H12.6092Z" fill="#3A65FF"/>
<defs>
<filter id="filter0_d_393_1703" x="-0.471928" y="0.608303" width="64.9434" height="42.7834" filterUnits="userSpaceOnUse" color-interpolation-filters="sRGB">
<feFlood flood-opacity="0" result="BackgroundImageFix"/>
<feColorMatrix in="SourceAlpha" type="matrix" values="0 0 0 0 0 0 0 0 0 0 0 0 0 0 0 0 0 0 127 0" result="hardAlpha"/>
<feOffset/>
<feGaussianBlur stdDeviation="4.44444"/>
<feComposite in2="hardAlpha" operator="out"/>
<feColorMatrix type="matrix" values="0 0 0 0 0.113725 0 0 0 0 0.121569 0 0 0 0 0.121569 0 0 0 0.25 0"/>
<feBlend mode="normal" in2="BackgroundImageFix" result="effect1_dropShadow_393_1703"/>
<feBlend mode="normal" in="SourceGraphic" in2="effect1_dropShadow_393_1703" result="shape"/>
</filter>
</defs>
</svg>
