<svg width="24" height="24" viewBox="0 0 24 24" fill="none" xmlns="http://www.w3.org/2000/svg">
<path fill-rule="evenodd" clip-rule="evenodd" d="M4.00063 17C4.00063 17.88 4.39063 18.67 5.00063 19.22V20.5C5.00063 21.3284 5.6722 22 6.50063 22C7.32906 22 8.00063 21.3284 8.00063 20.5V20H16.0006V20.5C16.0006 21.3284 16.6722 22 17.5006 22C18.3291 22 19.0006 21.3284 19.0006 20.5V19.22C19.6106 18.67 20.0006 17.88 20.0006 17V8.00438H20.9334C21.0438 8.00438 21.1334 8.09393 21.1334 8.20438V8.7394H20.6666V11.9132H22V8.7394H21.5334V8.20438C21.5334 7.87301 21.2647 7.60438 20.9334 7.60438H20.0006V7C20.0006 3.5 16.4206 3 12.0006 3C7.58063 3 4.00063 3.5 4.00063 7V7.60438H3.06663C2.73526 7.60438 2.46663 7.87301 2.46663 8.20438V8.7394H2L2 11.9132H3.33333L3.33333 8.7394H2.86663V8.20438C2.86663 8.09393 2.95618 8.00438 3.06663 8.00438H4.00063V17ZM18.0006 11.25C18.0006 11.6642 17.6648 12 17.2506 12H6.75063C6.33642 12 6.00063 11.6642 6.00063 11.25V7.75C6.00063 7.33579 6.33642 7 6.75063 7H17.2506C17.6648 7 18.0006 7.33579 18.0006 7.75V11.25ZM15.3334 15.0001C15.3334 15.5534 15.78 16.0001 16.3334 16.0001C16.8867 16.0001 17.3334 15.5534 17.3334 15.0001C17.3334 14.4468 16.8867 14.0001 16.3334 14.0001C15.78 14.0001 15.3334 14.4468 15.3334 15.0001ZM7.66672 16.0001C7.11338 16.0001 6.66672 15.5534 6.66672 15.0001C6.66672 14.4468 7.11338 14.0001 7.66672 14.0001C8.22005 14.0001 8.66672 14.4468 8.66672 15.0001C8.66672 15.5534 8.22005 16.0001 7.66672 16.0001ZM9.33379 16.5601H14.6699V17.8934H9.33379V16.5601Z" fill="#D6D9DA"/>
</svg>
