<svg width="40" height="22" viewBox="0 0 40 22" fill="none" xmlns="http://www.w3.org/2000/svg">
<g clip-path="url(#clip0_94_1397)">
<mask id="path-1-inside-1_94_1397" fill="white">
<path fill-rule="evenodd" clip-rule="evenodd" d="M4 0C1.79086 0 0 1.79086 0 4V18C0 20.2091 1.79086 22 4 22H32C34.2091 22 36 20.2091 36 18V14.3333L39.7519 11.832C40.3457 11.4362 40.3457 10.5638 39.7519 10.1679L36 7.66667V4C36 1.79086 34.2091 0 32 0H4Z"/>
</mask>
<path fill-rule="evenodd" clip-rule="evenodd" d="M4 0C1.79086 0 0 1.79086 0 4V18C0 20.2091 1.79086 22 4 22H32C34.2091 22 36 20.2091 36 18V14.3333L39.7519 11.832C40.3457 11.4362 40.3457 10.5638 39.7519 10.1679L36 7.66667V4C36 1.79086 34.2091 0 32 0H4Z" fill="white"/>
<path d="M36 14.3333L35.4453 13.5013L35 13.7981V14.3333H36ZM39.7519 11.832L39.1972 11V11L39.7519 11.832ZM39.7519 10.1679L40.3066 9.3359L40.3066 9.3359L39.7519 10.1679ZM36 7.66667H35V8.20185L35.4453 8.49872L36 7.66667ZM1 4C1 2.34315 2.34315 1 4 1V-1C1.23858 -1 -1 1.23858 -1 4H1ZM1 18V4H-1V18H1ZM4 21C2.34315 21 1 19.6569 1 18H-1C-1 20.7614 1.23858 23 4 23V21ZM32 21H4V23H32V21ZM35 18C35 19.6569 33.6569 21 32 21V23C34.7614 23 37 20.7614 37 18H35ZM35 14.3333V18H37V14.3333H35ZM39.1972 11L35.4453 13.5013L36.5547 15.1654L40.3066 12.6641L39.1972 11ZM39.1972 11V11L40.3066 12.6641C41.4941 11.8725 41.4941 10.1275 40.3066 9.3359L39.1972 11ZM35.4453 8.49872L39.1972 11L40.3066 9.3359L36.5547 6.83462L35.4453 8.49872ZM35 4V7.66667H37V4H35ZM32 1C33.6569 1 35 2.34315 35 4H37C37 1.23858 34.7614 -1 32 -1V1ZM4 1H32V-1H4V1Z" fill="#D6D9DA" mask="url(#path-1-inside-1_94_1397)"/>
<path d="M15.584 9.2207H12.7158V8.37744H15.584V9.2207ZM15.584 12.2393H12.7158V11.4067H15.584V12.2393ZM10.9648 7.00781C11.4375 7.00781 11.8564 7.14746 12.2217 7.42676C12.5905 7.70605 12.8787 8.09993 13.0864 8.6084C13.2941 9.11686 13.3979 9.70947 13.3979 10.3862C13.3979 11.0666 13.2941 11.661 13.0864 12.1694C12.8787 12.6779 12.5905 13.0718 12.2217 13.3511C11.8564 13.6268 11.4375 13.7646 10.9648 13.7646C10.4922 13.7646 10.0697 13.6268 9.69727 13.3511C9.32845 13.0754 9.0402 12.6833 8.83252 12.1748C8.62484 11.6628 8.521 11.0666 8.521 10.3862C8.521 9.70947 8.62484 9.11686 8.83252 8.6084C9.0402 8.09993 9.32845 7.70605 9.69727 7.42676C10.0697 7.14746 10.4922 7.00781 10.9648 7.00781ZM10.9648 7.9209C10.6784 7.9209 10.4224 8.02116 10.1968 8.22168C9.97119 8.4222 9.79753 8.70866 9.67578 9.08105C9.55762 9.44987 9.49854 9.88493 9.49854 10.3862C9.49854 10.884 9.55762 11.319 9.67578 11.6914C9.79753 12.0638 9.97119 12.3503 10.1968 12.5508C10.4224 12.7477 10.6784 12.8462 10.9648 12.8462C11.2513 12.8462 11.5073 12.7477 11.7329 12.5508C11.9585 12.3503 12.1322 12.0638 12.2539 11.6914C12.3757 11.319 12.4365 10.884 12.4365 10.3862C12.4365 9.88493 12.3739 9.44987 12.2485 9.08105C12.1268 8.70866 11.9549 8.4222 11.7329 8.22168C11.5145 8.02116 11.2585 7.9209 10.9648 7.9209ZM16.3843 15.9346H15.3691V6.28271H16.3843V15.9346ZM21.0947 15.9077H20.042V12.2715H21.0947V15.9077ZM24.4248 15.9077H23.3936V12.2715H24.4248V15.9077ZM26.6592 12.5615H17.8506V11.729H26.6592V12.5615ZM22.2334 6.64795C22.9102 6.64795 23.5081 6.73568 24.0273 6.91113C24.5465 7.08301 24.9476 7.33008 25.2305 7.65234C25.5169 7.97103 25.6602 8.34521 25.6602 8.7749C25.6602 9.19385 25.5169 9.56266 25.2305 9.88135C24.9476 10.1965 24.5465 10.4399 24.0273 10.6118C23.5081 10.7837 22.9102 10.8696 22.2334 10.8696C21.5566 10.8696 20.9604 10.7837 20.4448 10.6118C19.9292 10.4399 19.5264 10.1965 19.2363 9.88135C18.9499 9.56266 18.8066 9.19385 18.8066 8.7749C18.8066 8.34521 18.9499 7.97103 19.2363 7.65234C19.5228 7.33008 19.9238 7.08301 20.4395 6.91113C20.9587 6.73568 21.5566 6.64795 22.2334 6.64795ZM22.2334 7.4751C21.7572 7.4751 21.34 7.52702 20.9819 7.63086C20.6239 7.7347 20.3464 7.88509 20.1494 8.08203C19.9561 8.27897 19.8594 8.50993 19.8594 8.7749C19.8594 9.0363 19.9561 9.26367 20.1494 9.45703C20.3464 9.64681 20.6239 9.79541 20.9819 9.90283C21.34 10.0067 21.7572 10.0586 22.2334 10.0586C22.7096 10.0586 23.1286 10.0067 23.4902 9.90283C23.8519 9.79541 24.1294 9.64681 24.3228 9.45703C24.5197 9.26367 24.6182 9.0363 24.6182 8.7749C24.6182 8.50993 24.5197 8.27897 24.3228 8.08203C24.1294 7.88509 23.8519 7.7347 23.4902 7.63086C23.1286 7.52702 22.7096 7.4751 22.2334 7.4751Z" fill="#3A65FF"/>
</g>
<defs>
<clipPath id="clip0_94_1397">
<rect width="40" height="22" fill="white"/>
</clipPath>
</defs>
</svg>
