<svg width="16" height="16" viewBox="0 0 16 16" fill="none" xmlns="http://www.w3.org/2000/svg">
<path fill-rule="evenodd" clip-rule="evenodd" d="M2.66688 11.3333C2.66688 11.92 2.92688 12.4467 3.33354 12.8133V13.6667C3.33354 14.219 3.78126 14.6667 4.33354 14.6667C4.88583 14.6667 5.33354 14.219 5.33354 13.6667V13.3333H10.6669V13.6667C10.6669 14.219 11.1146 14.6667 11.6669 14.6667C12.2192 14.6667 12.6669 14.219 12.6669 13.6667V12.8133C13.0735 12.4467 13.3335 11.92 13.3335 11.3333V5.33633H13.9557C14.0294 5.33633 14.089 5.39602 14.089 5.46966V5.82617H13.7775V7.94205H14.6664L14.6663 5.82617H14.3557V5.46966C14.3557 5.24875 14.1766 5.06966 13.9557 5.06966H13.3335V4.66667C13.3335 2.33333 10.9469 2 8.00021 2C5.05354 2 2.66688 2.33333 2.66688 4.66667V5.06966H2.04461C1.8237 5.06966 1.64461 5.24875 1.64461 5.46966V5.82617H1.3335L1.3335 7.94206H2.22238L2.22238 5.82617H1.91128V5.46966C1.91128 5.39602 1.97098 5.33633 2.04461 5.33633H2.66688V11.3333ZM12.0002 7.5C12.0002 7.77614 11.7764 8 11.5002 8H4.50021C4.22407 8 4.00021 7.77614 4.00021 7.5V5.16667C4.00021 4.89052 4.22407 4.66667 4.50021 4.66667H11.5002C11.7764 4.66667 12.0002 4.89052 12.0002 5.16667V7.5ZM10.222 10C10.222 10.3689 10.5198 10.6667 10.8887 10.6667C11.2575 10.6667 11.5553 10.3689 11.5553 10C11.5553 9.63111 11.2575 9.33333 10.8887 9.33333C10.5198 9.33333 10.222 9.63111 10.222 10ZM5.11062 10.6667C4.74173 10.6667 4.44395 10.3689 4.44395 10C4.44395 9.63112 4.74173 9.33334 5.11062 9.33334C5.47951 9.33334 5.77729 9.63112 5.77729 10C5.77729 10.3689 5.47951 10.6667 5.11062 10.6667ZM6.22185 11.04H9.77925V11.9289H6.22185V11.04Z" fill="#D6D9DA"/>
</svg>
