<svg width="24" height="24" viewBox="0 0 24 24" fill="none" xmlns="http://www.w3.org/2000/svg">
<path fill-rule="evenodd" clip-rule="evenodd" d="M12 4.50075C7.85775 4.50075 4.50001 7.8585 4.50001 12.0007C4.49863 13.1059 4.74222 14.1975 5.21325 15.1972L4.51576 18.6C4.49092 18.7215 4.4966 18.8472 4.53229 18.966C4.56797 19.0848 4.63255 19.1928 4.72023 19.2805C4.80792 19.3682 4.91598 19.4328 5.03474 19.4685C5.1535 19.5041 5.27926 19.5098 5.40075 19.485L8.8035 18.7875C9.774 19.245 10.8585 19.5 12 19.5C16.1422 19.5 19.5 16.143 19.5 12C19.5 7.8585 16.1422 4.5 12 4.5" fill="#989FB4"/>
</svg>
