<svg width="16" height="16" viewBox="0 0 16 16" fill="none" xmlns="http://www.w3.org/2000/svg">
<path fill-rule="evenodd" clip-rule="evenodd" d="M8 3.00058C5.2385 3.00058 3 5.23907 3 8.00057C2.99908 8.73731 3.16148 9.4651 3.4755 10.1316L3.0105 12.4001C2.99395 12.4811 2.99773 12.5649 3.02152 12.6441C3.04531 12.7232 3.08836 12.7953 3.14682 12.8537C3.20528 12.9122 3.27732 12.9553 3.35649 12.979C3.43567 13.0028 3.51951 13.0066 3.6005 12.9901L5.869 12.5251C6.516 12.8301 7.239 13.0001 8 13.0001C10.7615 13.0001 13 10.7621 13 8.00007C13 5.23907 10.7615 3.00008 8 3.00008" fill="#989FB4"/>
</svg>
