<svg width="16" height="16" viewBox="0 0 16 16" fill="none" xmlns="http://www.w3.org/2000/svg">
<path fill-rule="evenodd" clip-rule="evenodd" d="M12.6437 6.86196C12.6437 9.08784 10.2437 12.2533 8.89467 13.4405C8.64847 13.6603 8.33 13.7817 7.99999 13.7817C7.66998 13.7817 7.35151 13.6603 7.1053 13.4405C5.75554 12.2533 3.35629 9.08784 3.35629 6.86196C3.35629 5.63037 3.84554 4.44923 4.7164 3.57837C5.58726 2.70751 6.7684 2.21826 7.99999 2.21826C9.23157 2.21826 10.4127 2.70751 11.2836 3.57837C12.1544 4.44923 12.6437 5.63037 12.6437 6.86196ZM7.99998 8.41001C8.85486 8.41001 9.54788 7.71699 9.54788 6.86211C9.54788 6.00723 8.85486 5.31421 7.99998 5.31421C7.1451 5.31421 6.45209 6.00723 6.45209 6.86211C6.45209 7.71699 7.1451 8.41001 7.99998 8.41001Z" fill="#676C6D"/>
</svg>
