<svg width="16" height="16" viewBox="0 0 16 16" fill="none" xmlns="http://www.w3.org/2000/svg">
  <path fill-rule="evenodd" clip-rule="evenodd" d="M12.6437 6.86193C12.6437 9.0878 10.2437 12.2533 8.89467 13.4405C8.64847 13.6603 8.33 13.7817 7.99999 13.7817C7.66998 13.7817 7.35151 13.6603 7.1053 13.4405C5.75554 12.2533 3.35629 9.0878 3.35629 6.86193C3.35629 5.63034 3.84554 4.4492 4.7164 3.57834C5.58726 2.70748 6.7684 2.21823 7.99999 2.21823C9.23157 2.21823 10.4127 2.70748 11.2836 3.57834C12.1544 4.4492 12.6437 5.63034 12.6437 6.86193ZM7.99998 8.40998C8.85486 8.40998 9.54788 7.71696 9.54788 6.86208C9.54788 6.0072 8.85486 5.31418 7.99998 5.31418C7.1451 5.31418 6.45209 6.0072 6.45209 6.86208C6.45209 7.71696 7.1451 8.40998 7.99998 8.40998Z" fill="white"/>
</svg>
