<svg width="16" height="16" viewBox="0 0 16 16" fill="none" xmlns="http://www.w3.org/2000/svg">
<path fill-rule="evenodd" clip-rule="evenodd" d="M3.76471 13.486C3.98833 13.7096 4.25728 13.8214 4.57157 13.8214H11.4287C11.7434 13.8218 12.0125 13.71 12.2361 13.486C12.4598 13.262 12.5716 12.9928 12.5716 12.6786V7.32142C12.5719 7.00751 12.4601 6.73856 12.2361 6.51456C12.0121 6.29056 11.743 6.17856 11.4287 6.17856H10.8573V5.0357C10.858 4.24599 10.5796 3.57227 10.0219 3.01456C9.46414 2.45684 8.79023 2.17818 8.00014 2.17856C7.21004 2.17894 6.53633 2.45761 5.979 3.01456C5.42166 3.57151 5.143 4.24523 5.143 5.0357V6.17856H4.57157C4.25766 6.17894 3.98871 6.29094 3.76471 6.51456C3.54071 6.73818 3.42871 7.00713 3.42871 7.32142V12.6786C3.42909 12.9932 3.54109 13.2624 3.76471 13.486ZM9.71443 5.0357V6.17856H6.28585V5.0357C6.28585 4.55951 6.45252 4.15475 6.78585 3.82142C7.11919 3.48808 7.52395 3.32142 8.00014 3.32142C8.47633 3.32142 8.88109 3.48808 9.21443 3.82142C9.54776 4.15475 9.71443 4.55951 9.71443 5.0357ZM8.00029 11.1713C8.31457 11.1713 8.58372 11.0595 8.80772 10.8359C9.03172 10.6123 9.14353 10.3431 9.14314 10.0285C9.14276 9.71378 9.03095 9.44483 8.80772 9.22159C8.58448 8.99836 8.31534 8.88636 8.00029 8.88559C7.68524 8.88483 7.41629 8.99683 7.19343 9.22159C6.97057 9.44636 6.85857 9.71531 6.85743 10.0285C6.85629 10.3416 6.96829 10.6107 7.19343 10.8359C7.41857 11.061 7.68753 11.1728 8.00029 11.1713Z" fill="#83888A"/>
</svg>
