<svg width="24" height="24" viewBox="0 0 24 24" fill="none" xmlns="http://www.w3.org/2000/svg">
<path fill-rule="evenodd" clip-rule="evenodd" d="M4 17C4 17.88 4.39 18.67 5 19.22V20.5C5 21.3284 5.67157 22 6.5 22C7.32843 22 8 21.3284 8 20.5V20H16V20.5C16 21.3284 16.6716 22 17.5 22C18.3284 22 19 21.3284 19 20.5V19.22C19.61 18.67 20 17.88 20 17V7C20 3.5 16.42 3 12 3C7.58 3 4 3.5 4 7V17ZM18 11C18 11.5523 17.5523 12 17 12H7C6.44772 12 6 11.5523 6 11V8C6 7.44772 6.44772 7 7 7H17C17.5523 7 18 7.44772 18 8V11ZM14 15C14 15.5533 14.4467 16 15 16C15.5533 16 16 15.5533 16 15C16 14.4467 15.5533 14 15 14C14.4467 14 14 14.4467 14 15ZM9 16C8.44667 16 8 15.5533 8 15C8 14.4467 8.44667 14 9 14C9.55333 14 10 14.4467 10 15C10 15.5533 9.55333 16 9 16Z" fill="#A2A7A9"/>
</svg>
