<svg width="16" height="16" viewBox="0 0 16 16" fill="none" xmlns="http://www.w3.org/2000/svg">
<path d="M11.0001 2.80394C11.9051 3.32645 12.6579 4.07625 13.184 4.97912C13.7102 5.88198 13.9914 6.9066 13.9998 7.95154C14.0082 8.99648 13.7436 10.0255 13.2322 10.9368C12.7207 11.848 11.9801 12.6099 11.0837 13.1469C10.1872 13.684 9.16611 13.9776 8.12133 13.9988C7.07656 14.0199 6.04438 13.7678 5.12697 13.2675C4.20956 12.7671 3.43874 12.0358 2.89081 11.146C2.34288 10.2562 2.03685 9.23876 2.003 8.19433L2 7.99993L2.003 7.80553C2.0366 6.76933 2.33813 5.75951 2.87819 4.87453C3.41826 3.98955 4.17842 3.25961 5.08457 2.75586C5.99073 2.25212 7.01195 1.99177 8.04868 2.0002C9.08541 2.00862 10.1023 2.28553 11.0001 2.80394ZM8.00007 4.39994C7.85311 4.39995 7.71127 4.45391 7.60145 4.55156C7.49162 4.64922 7.42146 4.78378 7.40427 4.92974L7.40007 4.99994V7.99993L7.40547 8.07853C7.41915 8.18263 7.4599 8.28132 7.52367 8.36473L7.57587 8.42473L9.37589 10.2247L9.43229 10.2739C9.53752 10.3556 9.66691 10.3999 9.8001 10.3999C9.93328 10.3999 10.0627 10.3556 10.1679 10.2739L10.2243 10.2241L10.2741 10.1677C10.3557 10.0625 10.4001 9.93312 10.4001 9.79993C10.4001 9.66675 10.3557 9.53736 10.2741 9.43213L10.2243 9.37573L8.60008 7.75093V4.99994L8.59588 4.92974C8.57869 4.78378 8.50852 4.64922 8.3987 4.55156C8.28888 4.45391 8.14704 4.39995 8.00007 4.39994Z" fill="#83888A"/>
</svg>
