<svg width="16" height="16" viewBox="0 0 16 16" fill="none" xmlns="http://www.w3.org/2000/svg">
<path fill-rule="evenodd" clip-rule="evenodd" d="M13.23 7.84132C13.23 7.61147 13.1058 7.46101 12.8574 7.15881C11.9482 6.05502 9.94295 3.99982 7.615 3.99982C5.28705 3.99982 3.28178 6.05502 2.37263 7.15881C2.12421 7.46101 2 7.61147 2 7.84132C2 8.07117 2.12421 8.22163 2.37263 8.52383C3.28178 9.62762 5.28705 11.6828 7.615 11.6828C9.94295 11.6828 11.9482 9.62762 12.8574 8.52383C13.1058 8.22163 13.23 8.07117 13.23 7.84132ZM7.615 9.76207C8.12441 9.76207 8.61297 9.55971 8.97318 9.1995C9.33339 8.83929 9.53575 8.35074 9.53575 7.84132C9.53575 7.33191 9.33339 6.84336 8.97318 6.48314C8.61297 6.12293 8.12441 5.92057 7.615 5.92057C7.10558 5.92057 6.61703 6.12293 6.25682 6.48314C5.89661 6.84336 5.69425 7.33191 5.69425 7.84132C5.69425 8.35074 5.89661 8.83929 6.25682 9.1995C6.61703 9.55971 7.10558 9.76207 7.615 9.76207Z" fill="#989FB4"/>
</svg>
