<svg width="24" height="24" viewBox="0 0 24 24" fill="none" xmlns="http://www.w3.org/2000/svg">
<path d="M14.0853 6.41807L13.0063 7.49702L15.9043 10.395L16.9833 9.31608C17.5406 8.75877 17.5406 7.85593 16.9833 7.29862L16.105 6.41807C15.5477 5.86076 14.6448 5.86076 14.0875 6.41807H14.0853ZM12.5025 8.00083L7.30618 13.1994C7.07434 13.4312 6.90491 13.7188 6.81129 14.0331L6.02214 16.7149C5.96641 16.9044 6.01768 17.1072 6.15589 17.2455C6.2941 17.3837 6.49696 17.4349 6.68422 17.3814L9.36599 16.5923C9.68031 16.4987 9.96788 16.3292 10.1997 16.0974L15.4005 10.8988L12.5025 8.00083Z" fill="#fff"/>
</svg>
